<svg id="visual" viewBox="0 0 900 600" width="900" height="600" xmlns="http://www.w3.org/2000/svg" xmlns:xlink="http://www.w3.org/1999/xlink" version="1.1"><rect x="0" y="0" width="900" height="600" fill="#001220"></rect><defs><linearGradient id="grad1_0" x1="33.3%" y1="0%" x2="100%" y2="100%"><stop offset="20%" stop-color="#fbae3c" stop-opacity="1"></stop><stop offset="80%" stop-color="#fbae3c" stop-opacity="1"></stop></linearGradient></defs><defs><linearGradient id="grad1_1" x1="33.3%" y1="0%" x2="100%" y2="100%"><stop offset="20%" stop-color="#fbae3c" stop-opacity="1"></stop><stop offset="80%" stop-color="#cc5867" stop-opacity="1"></stop></linearGradient></defs><defs><linearGradient id="grad1_2" x1="33.3%" y1="0%" x2="100%" y2="100%"><stop offset="20%" stop-color="#593762" stop-opacity="1"></stop><stop offset="80%" stop-color="#cc5867" stop-opacity="1"></stop></linearGradient></defs><defs><linearGradient id="grad1_3" x1="33.3%" y1="0%" x2="100%" y2="100%"><stop offset="20%" stop-color="#593762" stop-opacity="1"></stop><stop offset="80%" stop-color="#001220" stop-opacity="1"></stop></linearGradient></defs><defs><linearGradient id="grad2_0" x1="0%" y1="0%" x2="66.7%" y2="100%"><stop offset="20%" stop-color="#fbae3c" stop-opacity="1"></stop><stop offset="80%" stop-color="#fbae3c" stop-opacity="1"></stop></linearGradient></defs><defs><linearGradient id="grad2_1" x1="0%" y1="0%" x2="66.7%" y2="100%"><stop offset="20%" stop-color="#cc5867" stop-opacity="1"></stop><stop offset="80%" stop-color="#fbae3c" stop-opacity="1"></stop></linearGradient></defs><defs><linearGradient id="grad2_2" x1="0%" y1="0%" x2="66.7%" y2="100%"><stop offset="20%" stop-color="#cc5867" stop-opacity="1"></stop><stop offset="80%" stop-color="#593762" stop-opacity="1"></stop></linearGradient></defs><defs><linearGradient id="grad2_3" x1="0%" y1="0%" x2="66.7%" y2="100%"><stop offset="20%" stop-color="#001220" stop-opacity="1"></stop><stop offset="80%" stop-color="#593762" stop-opacity="1"></stop></linearGradient></defs><g transform="translate(900, 0)"><path d="M0 432.7C-36.9 427.6 -73.8 422.6 -111 414.4C-148.2 406.2 -185.7 394.7 -215.5 373.3C-245.3 351.8 -267.3 320.3 -293.4 293.4C-319.6 266.6 -350 244.4 -372.4 215C-394.8 185.6 -409.2 149 -417.9 112C-426.6 75 -429.7 37.5 -432.7 0L0 0Z" fill="#232745"></path><path d="M0 324.5C-27.7 320.7 -55.4 317 -83.3 310.8C-111.2 304.6 -139.3 296 -161.6 279.9C-183.9 263.8 -200.4 240.2 -220.1 220.1C-239.7 200 -262.5 183.3 -279.3 161.3C-296.1 139.2 -306.9 111.8 -313.4 84C-320 56.2 -322.2 28.1 -324.5 0L0 0Z" fill="#96446e"></path><path d="M0 216.3C-18.5 213.8 -36.9 211.3 -55.5 207.2C-74.1 203.1 -92.9 197.4 -107.7 186.6C-122.6 175.9 -133.6 160.1 -146.7 146.7C-159.8 133.3 -175 122.2 -186.2 107.5C-197.4 92.8 -204.6 74.5 -209 56C-213.3 37.5 -214.8 18.7 -216.3 0L0 0Z" fill="#f17c53"></path><path d="M0 108.2C-9.2 106.9 -18.5 105.7 -27.8 103.6C-37.1 101.5 -46.4 98.7 -53.9 93.3C-61.3 87.9 -66.8 80.1 -73.4 73.4C-79.9 66.7 -87.5 61.1 -93.1 53.8C-98.7 46.4 -102.3 37.3 -104.5 28C-106.7 18.7 -107.4 9.4 -108.2 0L0 0Z" fill="#fbae3c"></path></g><g transform="translate(0, 600)"><path d="M0 -432.7C36.9 -426.8 73.8 -420.9 110.5 -412.5C147.2 -404 183.8 -392.9 216.3 -374.7C248.8 -356.5 277.3 -331 303.3 -303.3C329.4 -275.7 353 -245.7 368.1 -212.5C383.1 -179.3 389.6 -142.8 398.9 -106.9C408.3 -70.9 420.5 -35.5 432.7 0L0 0Z" fill="#232745"></path><path d="M0 -324.5C27.7 -320.1 55.3 -315.7 82.9 -309.3C110.4 -303 137.9 -294.7 162.2 -281C186.6 -267.3 208 -248.3 227.5 -227.5C247 -206.7 264.8 -184.3 276 -159.4C287.3 -134.5 292.2 -107.1 299.2 -80.2C306.2 -53.2 315.3 -26.6 324.5 0L0 0Z" fill="#96446e"></path><path d="M0 -216.3C18.4 -213.4 36.9 -210.5 55.3 -206.2C73.6 -202 91.9 -196.5 108.2 -187.3C124.4 -178.2 138.7 -165.5 151.7 -151.7C164.7 -137.8 176.5 -122.9 184 -106.3C191.6 -89.6 194.8 -71.4 199.5 -53.4C204.1 -35.5 210.2 -17.7 216.3 0L0 0Z" fill="#f17c53"></path><path d="M0 -108.2C9.2 -106.7 18.4 -105.2 27.6 -103.1C36.8 -101 46 -98.2 54.1 -93.7C62.2 -89.1 69.3 -82.8 75.8 -75.8C82.3 -68.9 88.3 -61.4 92 -53.1C95.8 -44.8 97.4 -35.7 99.7 -26.7C102.1 -17.7 105.1 -8.9 108.2 0L0 0Z" fill="#fbae3c"></path></g></svg>