<svg id="visual" viewBox="0 0 1920 1080" width="1920" height="1080" xmlns="http://www.w3.org/2000/svg" xmlns:xlink="http://www.w3.org/1999/xlink" version="1.1"><rect x="0" y="0" width="1920" height="1080" fill="#171710"></rect><path d="M0 231L32 228.7C64 226.3 128 221.7 192 194.2C256 166.7 320 116.3 384 122.3C448 128.3 512 190.7 576 210.7C640 230.7 704 208.3 768 196.3C832 184.3 896 182.7 960 184.2C1024 185.7 1088 190.3 1152 199.2C1216 208 1280 221 1344 228.5C1408 236 1472 238 1536 226.7C1600 215.3 1664 190.7 1728 174.2C1792 157.7 1856 149.3 1888 145.2L1920 141L1920 0L1888 0C1856 0 1792 0 1728 0C1664 0 1600 0 1536 0C1472 0 1408 0 1344 0C1280 0 1216 0 1152 0C1088 0 1024 0 960 0C896 0 832 0 768 0C704 0 640 0 576 0C512 0 448 0 384 0C320 0 256 0 192 0C128 0 64 0 32 0L0 0Z" fill="#FFC95F" stroke-linecap="round" stroke-linejoin="miter"></path></svg>